# xmcd
#
# Track frame offsets: 
#        150
#        28760
#        48200
#        75145
#        102092
#        127490
#        143905
#        163440
#        189287
#        211220
#
# Disc length: 2990 seconds
#
# Revision: 7
# Processed by: cddbd v1.5.2PL0 Copyright (c) Steve Scherf et al.
# Submitted via: ExactAudioCopy v0.99pb3
#
DISCID=850bac0a
DTITLE=Lambchop - Nixon
DYEAR=2000
DGENRE=Alt-Country
TTITLE0=The Old Gold Shoe
TTITLE1=Grumpus
TTITLE2=You Masculine You
TTITLE3=Up With People
TTITLE4=Nashville Parent
TTITLE5=What Else Could It Be?
TTITLE6=The Distance From Her To There
TTITLE7=The Book I Haven't Read
TTITLE8=The Petrified Florist
TTITLE9=The Butcher Boy
EXTD=
EXTT0=
EXTT1=
EXTT2=
EXTT3=
EXTT4=
EXTT5=
EXTT6=
EXTT7=
EXTT8=
EXTT9=
PLAYORDER=
